
    <svg xmlns="http://www.w3.org/2000/svg" viewBox="0 0 400 550" width="100%" height="100%">
      <defs>
        <linearGradient id="bgGrad_5653" x1="0%" y1="0%" x2="0%" y2="100%">
          <stop offset="0%" stop-color="#311B92" />
          <stop offset="100%" stop-color="#090325" />
        </linearGradient>
        
        <pattern id="grain_5653" width="100" height="100" patternUnits="userSpaceOnUse">
          <line x1="0" y1="10" x2="100" y2="10" stroke="#000" stroke-width="0.3" opacity="0.05" />
          <line x1="0" y1="35" x2="100" y2="35" stroke="#000" stroke-width="0.2" opacity="0.07" />
          <line x1="0" y1="65" x2="100" y2="65" stroke="#000" stroke-width="0.3" opacity="0.04" />
          <line x1="0" y1="88" x2="100" y2="88" stroke="#000" stroke-width="0.2" opacity="0.06" />
        </pattern>
      </defs>

      <!-- Outer Frame -->
      <rect x="0" y="0" width="400" height="550" fill="url(#bgGrad_5653)" stroke="#1A1A1A" stroke-width="10" rx="8" />
      
      <!-- Subtle Grain Layer -->
      <rect x="5" y="5" width="390" height="540" fill="url(#grain_5653)" rx="4" pointer-events="none" />
      
      <!-- Frame Stripes -->
      <g opacity="0.12">
        <line x1="30" y1="0" x2="30" y2="550" stroke="#FFF" stroke-width="2" />
        <line x1="370" y1="0" x2="370" y2="550" stroke="#FFF" stroke-width="2" />
        <line x1="200" y1="0" x2="200" y2="550" stroke="#FFF" stroke-width="2" stroke-dasharray="8,8" />
      </g>

      <!-- Border Frame inside Title -->
      <rect x="25" y="25" width="350" height="130" fill="none" stroke="#00E676" stroke-width="2.5" stroke-dasharray="5 5" opacity="0.6" rx="4" />

      <!-- Genre Decals -->
      
      <circle cx="200" cy="240" r="75" fill="#00E676" opacity="0.2" />
      <circle cx="200" cy="240" r="60" fill="#E8F5E9" opacity="0.6" />
      <!-- Spooky tree branch silhouette -->
      <path d="M 50,380 Q 150,360 210,340 T 350,330" fill="none" stroke="#090325" stroke-width="10" stroke-linecap="round" opacity="0.8"/>
      <path d="M 120,360 Q 140,290 110,250" fill="none" stroke="#090325" stroke-width="5" stroke-linecap="round" opacity="0.8"/>
    

      <!-- Cylindrical Little People Peg Actor (Centered) -->
      <g id="peg-toy-graphic" transform="translate(0, 50)">
        <!-- Cylinder stand pad -->
        <ellipse cx="200" cy="412" rx="55" ry="12" fill="#111" stroke="#333" stroke-width="2" opacity="0.5" />
        <ellipse cx="200" cy="410" rx="50" ry="10" fill="#FAF6E8" stroke="#1A1A1A" stroke-width="3.5" />
        
        <!-- Plastic body cylinder -->
        <path d="M 176,410 L 182,332 L 218,332 L 224,410 Z" fill="#4A148C" stroke="#1A1A1A" stroke-width="4" stroke-linejoin="round" />
        
        <!-- Plastic specular body sheen -->
        <path d="M 183,338 L 179,403" fill="none" stroke="#FFF" stroke-width="3" opacity="0.3" stroke-linecap="round" />
        
        <!-- Neck flange spacer ring -->
        <circle cx="200" cy="328" r="14" fill="#FAF6E8" stroke="#1A1A1A" stroke-width="3.5" />
        
        <!-- Round peach face wood bead -->
        <circle cx="200" cy="298" r="28" fill="#FAF6E8" stroke="#1A1A1A" stroke-width="4.5" />
        
        <!-- Sun glare highlight -->
        <circle cx="188" cy="286" r="5" fill="#FFF" opacity="0.4" />

        <!-- Double dot eyes and red painted micro smile -->
        <circle cx="189" cy="296" r="3" fill="#111" />
        <circle cx="211" cy="296" r="3" fill="#111" />
        <path d="M 193,306 Q 200,312 207,306" fill="none" stroke="#D32F2F" stroke-width="3.5" stroke-linecap="round" />

        <!-- Molded hat/hair accessory -->
        
      <!-- Molded Spooky Flat Cap/Cowl -->
      <path d="M 162,290 C 162,250 238,250 238,290 Z" fill="#374151" stroke="#1A1A1A" stroke-width="3" />
      <!-- glowing single green eye slot dot -->
      <circle cx="200" cy="245" r="4" fill="#00E676" />
    
      </g>

      <!-- Label Details -->
      <g transform="translate(0, -5)">
        <rect x="25" y="475" width="350" height="1" fill="#1A1A1A" opacity="0.2" />
        <text x="200" y="495" text-anchor="middle" font-family="'JetBrains Mono', 'Courier New', monospace" font-size="10.5" font-weight="900" fill="#00E676" letter-spacing="3.5px">★ TOYBOX ORIGINALS ★</text>
      </g>

      <!-- Core Title Render Overlay -->
      <g id="title-wrapper">
        <text x="200" y="55" text-anchor="middle" font-family="'Space Grotesk', 'Inter', sans-serif" font-weight="950" font-size="28" fill="#FFFFFF" stroke="#101827" stroke-width="5" paint-order="stroke fill" letter-spacing="-0.5px">THE MAW OF THE</text><text x="200" y="85" text-anchor="middle" font-family="'Space Grotesk', 'Inter', sans-serif" font-weight="950" font-size="28" fill="#FFFFFF" stroke="#101827" stroke-width="5" paint-order="stroke fill" letter-spacing="-0.5px">GOLDEN</text><text x="200" y="115" text-anchor="middle" font-family="'Space Grotesk', 'Inter', sans-serif" font-weight="950" font-size="28" fill="#FFFFFF" stroke="#101827" stroke-width="5" paint-order="stroke fill" letter-spacing="-0.5px">RETRIEVER</text>
      </g>

      <!-- Horizontal Badges -->
      <rect x="22" y="172" width="105" height="24" fill="#FAF6E8" stroke="#1A1A1A" stroke-width="3" rx="12" />
      <text x="74" y="187" text-anchor="middle" font-family="'JetBrains Mono', monospace" font-size="9" font-weight="900" fill="#111" letter-spacing="0.5px">HORROR</text>

      <rect x="290" y="172" width="88" height="24" fill="#FAF6E8" stroke="#1A1A1A" stroke-width="3" rx="12" />
      <text x="334" y="187" text-anchor="middle" font-family="'JetBrains Mono', monospace" font-size="9" font-weight="900" fill="#111" letter-spacing="0.5px">MOD# 1979</text>

      <!-- Footer print details -->
      <text x="200" y="525" text-anchor="middle" font-family="'Space Grotesk', sans-serif" font-weight="800" font-size="8.5" fill="#FFFFFF" opacity="0.6" letter-spacing="1.5px">LITTLE PEOPLE MFG CORP • 100% OFFLINE SPECIAL DECAL</text>
    </svg>
  